<svg width="1920" height="414" viewBox="0 0 1920 414" fill="none" xmlns="http://www.w3.org/2000/svg">
<g clip-path="url(#clip0_384_76)">
<path d="M95.3429 34.5023L95.9534 33.8918L95.3429 33.2812L81.8907 19.829L81.2801 19.2185L80.6696 19.829L65.9816 34.517L50.854 19.3894L50.2435 18.7789L49.6329 19.3894L35.3894 33.6329L34.7789 34.2435L35.3894 34.854L50.517 49.9816L35.829 64.6696L35.2185 65.2801L35.829 65.8907L49.2812 79.3429L49.8918 79.9534L50.5023 79.3429L65.1903 64.6549L80.2299 79.6946L80.8405 80.3051L81.4511 79.6946L95.6946 65.4511L96.3051 64.8405L95.6946 64.2299L80.6549 49.1903L95.3429 34.5023Z" stroke="#4400A0" stroke-width="1.72696"/>
<path d="M82 236C82 240.418 78.4183 244 74 244C69.5817 244 66 240.418 66 236C66 231.582 69.5817 228 74 228C78.4183 228 82 231.582 82 236Z" fill="#390086"/>
<path d="M107.923 236C107.923 240.418 104.341 244 99.9231 244C95.5048 244 91.9231 240.418 91.9231 236C91.9231 231.582 95.5048 228 99.9231 228C104.341 228 107.923 231.582 107.923 236Z" fill="#390086"/>
<path d="M133.846 236C133.846 240.418 130.264 244 125.846 244C121.428 244 117.846 240.418 117.846 236C117.846 231.582 121.428 228 125.846 228C130.264 228 133.846 231.582 133.846 236Z" fill="#390086"/>
<path d="M159.769 236C159.769 240.418 156.188 244 151.769 244C147.351 244 143.769 240.418 143.769 236C143.769 231.582 147.351 228 151.769 228C156.188 228 159.769 231.582 159.769 236Z" fill="#390086"/>
<path d="M185.692 236C185.692 240.418 182.111 244 177.692 244C173.274 244 169.692 240.418 169.692 236C169.692 231.582 173.274 228 177.692 228C182.111 228 185.692 231.582 185.692 236Z" fill="#390086"/>
<path d="M211.615 236C211.615 240.418 208.034 244 203.615 244C199.197 244 195.615 240.418 195.615 236C195.615 231.582 199.197 228 203.615 228C208.034 228 211.615 231.582 211.615 236Z" fill="#390086"/>
<path d="M237.538 236C237.538 240.418 233.957 244 229.538 244C225.12 244 221.538 240.418 221.538 236C221.538 231.582 225.12 228 229.538 228C233.957 228 237.538 231.582 237.538 236Z" fill="#390086"/>
<path d="M263.462 236C263.462 240.418 259.88 244 255.462 244C251.043 244 247.462 240.418 247.462 236C247.462 231.582 251.043 228 255.462 228C259.88 228 263.462 231.582 263.462 236Z" fill="#390086"/>
<path d="M289.385 236C289.385 240.418 285.803 244 281.385 244C276.966 244 273.385 240.418 273.385 236C273.385 231.582 276.966 228 281.385 228C285.803 228 289.385 231.582 289.385 236Z" fill="#390086"/>
<path d="M315.308 236C315.308 240.418 311.726 244 307.308 244C302.889 244 299.308 240.418 299.308 236C299.308 231.582 302.889 228 307.308 228C311.726 228 315.308 231.582 315.308 236Z" fill="#390086"/>
<path d="M341.231 236C341.231 240.418 337.649 244 333.231 244C328.812 244 325.231 240.418 325.231 236C325.231 231.582 328.812 228 333.231 228C337.649 228 341.231 231.582 341.231 236Z" fill="#390086"/>
<path d="M367.154 236C367.154 240.418 363.572 244 359.154 244C354.736 244 351.154 240.418 351.154 236C351.154 231.582 354.736 228 359.154 228C363.572 228 367.154 231.582 367.154 236Z" fill="#390086"/>
<path d="M393.077 236C393.077 240.418 389.495 244 385.077 244C380.659 244 377.077 240.418 377.077 236C377.077 231.582 380.659 228 385.077 228C389.495 228 393.077 231.582 393.077 236Z" fill="#390086"/>
<path d="M419 236C419 240.418 415.418 244 411 244C406.582 244 403 240.418 403 236C403 231.582 406.582 228 411 228C415.418 228 419 231.582 419 236Z" fill="#390086"/>
<path d="M1618.88 -47.9902L1981.23 145.888M1550 -40.6129L2013.31 207.285" stroke="#1E0047" stroke-width="3" stroke-linecap="round"/>
</g>
<defs>
<clipPath id="clip0_384_76">
<path d="M0 80C0 35.8172 35.8172 0 80 0H1840C1884.18 0 1920 35.8172 1920 80V414H0V80Z" fill="white"/>
</clipPath>
</defs>
</svg>
